<svg width="24" height="24" viewBox="0 0 24 24" fill="none" xmlns="http://www.w3.org/2000/svg">
<path d="M5.4 19.6C4.65 18.85 4.0625 17.9833 3.6375 17C3.2125 16.0167 3 15 3 13.95C3 12.9 3.2 11.8625 3.6 10.8375C4 9.8125 4.65 8.85 5.55 7.95C6.13333 7.36666 6.85417 6.86666 7.7125 6.45C8.57083 6.03333 9.5875 5.70416 10.7625 5.4625C11.9375 5.22083 13.2792 5.075 14.7875 5.025C16.2958 4.975 17.9833 5.03333 19.85 5.2C19.9833 6.96666 20.025 8.59166 19.975 10.075C19.925 11.5583 19.7875 12.8958 19.5625 14.0875C19.3375 15.2792 19.0208 16.3208 18.6125 17.2125C18.2042 18.1042 17.7 18.85 17.1 19.45C16.2167 20.3333 15.2792 20.9792 14.2875 21.3875C13.2958 21.7958 12.2833 22 11.25 22C10.1667 22 9.10833 21.7875 8.075 21.3625C7.04167 20.9375 6.15 20.35 5.4 19.6ZM8.2 19.2C8.68333 19.4833 9.17917 19.6875 9.6875 19.8125C10.1958 19.9375 10.7167 20 11.25 20C12.0167 20 12.775 19.8458 13.525 19.5375C14.275 19.2292 14.9917 18.7333 15.675 18.05C15.975 17.75 16.2792 17.3292 16.5875 16.7875C16.8958 16.2458 17.1625 15.5375 17.3875 14.6625C17.6125 13.7875 17.7833 12.7292 17.9 11.4875C18.0167 10.2458 18.0333 8.76666 17.95 7.05C17.1333 7.01666 16.2125 7.00416 15.1875 7.0125C14.1625 7.02083 13.1417 7.1 12.125 7.25C11.1083 7.4 10.1417 7.64166 9.225 7.975C8.30833 8.30833 7.55833 8.76666 6.975 9.35C6.225 10.1 5.70833 10.8417 5.425 11.575C5.14167 12.3083 5 13.0167 5 13.7C5 14.6833 5.1875 15.5458 5.5625 16.2875C5.9375 17.0292 6.26667 17.55 6.55 17.85C7.25 16.5167 8.175 15.2375 9.325 14.0125C10.475 12.7875 11.8167 11.7833 13.35 11C12.15 12.05 11.1042 13.2375 10.2125 14.5625C9.32083 15.8875 8.65 17.4333 8.2 19.2Z" fill="#365912"/>
</svg>
