<svg width="30" height="30" viewBox="0 0 30 30" fill="none" xmlns="http://www.w3.org/2000/svg">
<path d="M13.9375 27.5C13.625 27.5 13.3125 27.4375 13 27.3125C12.6875 27.1875 12.4063 27 12.1563 26.75L3.21875 17.8125C2.96875 17.5625 2.78646 17.2865 2.67188 16.9844C2.55729 16.6823 2.5 16.375 2.5 16.0625C2.5 15.75 2.55729 15.4375 2.67188 15.125C2.78646 14.8125 2.96875 14.5312 3.21875 14.2812L14.2188 3.25C14.4479 3.02083 14.7188 2.83854 15.0313 2.70312C15.3438 2.56771 15.6667 2.5 16 2.5H24.9688C25.6563 2.5 26.2448 2.74479 26.7344 3.23437C27.224 3.72396 27.4688 4.3125 27.4688 5V13.9687C27.4688 14.3021 27.4063 14.6198 27.2813 14.9219C27.1563 15.224 26.9792 15.4896 26.75 15.7187L15.7188 26.75C15.4688 27 15.1875 27.1875 14.875 27.3125C14.5625 27.4375 14.25 27.5 13.9375 27.5ZM13.9375 25L24.9688 13.9375V5H16.0313L5 16.0625L13.9375 25ZM21.8438 10C22.3646 10 22.8073 9.81771 23.1719 9.45312C23.5365 9.08854 23.7188 8.64583 23.7188 8.125C23.7188 7.60417 23.5365 7.16146 23.1719 6.79687C22.8073 6.43229 22.3646 6.25 21.8438 6.25C21.3229 6.25 20.8802 6.43229 20.5156 6.79687C20.151 7.16146 19.9688 7.60417 19.9688 8.125C19.9688 8.64583 20.151 9.08854 20.5156 9.45312C20.8802 9.81771 21.3229 10 21.8438 10Z" fill="#365912"/>
</svg>
